<?xml version="1.0" standalone="no"?>
<!DOCTYPE svg PUBLIC "-//W3C//DTD SVG 20010904//EN"
 "http://www.w3.org/TR/2001/REC-SVG-20010904/DTD/svg10.dtd">
<svg version="1.0" xmlns="http://www.w3.org/2000/svg"
 width="451.000000pt" height="436.000000pt" viewBox="0 0 451.000000 436.000000"
 preserveAspectRatio="xMidYMid meet">

<g transform="translate(0.000000,436.000000) scale(0.100000,-0.100000)"
fill="#000000" stroke="none">
<path d="M2070 4330 c-804 -73 -1495 -543 -1831 -1245 -477 -996 -103 -2179
869 -2752 346 -204 734 -307 1157 -307 226 0 348 15 559 68 1108 281 1816
1329 1636 2422 -154 933 -913 1661 -1875 1798 -138 19 -390 27 -515 16z m1788
-1422 l-3 -83 -372 -3 -373 -2 0 -235 0 -235 325 0 325 0 0 -85 0 -85 -325 0
-325 0 0 -260 0 -260 380 0 380 0 0 -85 0 -85 -480 0 -480 0 0 750 0 750 475
0 476 0 -3 -82z m-2800 -681 l2 -748 -102 3 -103 3 -3 735 c-1 404 0 741 3
748 3 9 30 12 102 10 l98 -3 3 -748z m1022 625 c40 -20 564 -451 597 -490 25
-30 30 -85 12 -125 -13 -28 -537 -504 -583 -529 -106 -58 -246 32 -217 139 10
38 37 64 269 271 l37 33 -380 -8 c-209 -4 -405 -8 -436 -7 -160 1 -213 170
-76 241 26 13 86 17 342 24 170 4 363 8 428 8 l119 1 -155 129 c-97 82 -158
140 -166 160 -24 57 7 122 72 152 53 23 93 24 137 1z"/>
</g>
</svg>
